<svg width="538" height="505" viewBox="0 0 538 505" fill="none" xmlns="http://www.w3.org/2000/svg">
<path d="M287.721 2.56671C295.347 7.46986 299.931 15.8429 304.796 23.2728C306.782 26.305 308.785 29.3265 310.788 32.348C311.371 33.2286 311.371 33.2286 311.966 34.127C316.224 40.5407 320.693 46.7796 325.221 53.0042C326.351 54.6053 327.476 56.2093 328.596 57.8167C331.714 62.2805 334.838 66.7389 337.971 71.1917C338.479 71.9155 338.986 72.6393 339.509 73.3851C342.103 77.0706 344.738 80.7121 347.475 84.2933C347.989 84.9711 348.503 85.6489 349.033 86.3472C350.013 87.634 351.005 88.913 352.007 90.1827C355.189 94.3711 355.189 94.3711 355.327 97.0511C353.658 99.9995 351.472 102.434 349.221 104.942C335.406 120.651 335.406 120.651 330.909 140.379C330.921 141.131 330.934 141.883 330.947 142.657C331.375 158.952 339.817 170.124 348.89 183.087C351.379 186.672 353.774 190.32 356.174 193.965C357.917 196.552 359.695 199.106 361.491 201.657C365.314 207.103 368.989 212.641 372.659 218.192C378.041 226.303 383.509 234.345 389.096 242.317C395.368 251.266 401.462 260.323 407.499 269.431C412.888 277.559 418.389 285.595 424.019 293.557C429.366 301.146 434.51 308.867 439.63 316.61C442.598 321.095 445.589 325.555 448.69 329.95C452.69 335.63 456.491 341.434 460.284 347.254C460.65 347.816 461.017 348.377 461.394 348.956C468.21 359.4 474.936 369.902 481.601 380.443C483.188 382.951 484.778 385.456 486.37 387.961C491.154 395.501 495.891 403.064 500.534 410.692C514.122 433.134 514.122 433.134 528.721 454.921C533.992 462.389 537.971 468.555 537.221 478.004C534.85 487.573 530.398 494.491 522.096 499.879C517.63 502.529 513.578 504.249 508.335 504.278C507.378 504.288 506.421 504.298 505.434 504.309C504.396 504.309 503.357 504.31 502.287 504.311C500.633 504.323 500.633 504.323 498.945 504.336C495.296 504.36 491.647 504.369 487.999 504.375C485.456 504.384 482.914 504.393 480.371 504.403C475.037 504.419 469.704 504.427 464.37 504.43C458.231 504.433 452.093 504.463 445.954 504.505C440.025 504.544 434.095 504.555 428.166 504.556C425.656 504.561 423.145 504.573 420.635 504.594C417.11 504.621 413.586 504.616 410.061 504.604C409.036 504.618 408.012 504.633 406.957 504.649C395.496 504.534 385.453 499.921 377.221 492.004C372.041 486.363 367.554 480.202 363.159 473.942C362.764 473.381 362.37 472.821 361.963 472.244C359.221 468.25 359.221 468.25 359.221 466.004C365.853 464.457 372.474 463.26 379.206 462.242C380.734 462.01 380.734 462.01 382.292 461.773C384.43 461.449 386.568 461.128 388.706 460.808C391.977 460.316 395.245 459.812 398.514 459.307C400.599 458.993 402.683 458.68 404.768 458.367C405.742 458.215 406.716 458.063 407.72 457.907C409.087 457.706 409.087 457.706 410.482 457.502C411.279 457.381 412.075 457.26 412.896 457.136C415.565 456.985 417.662 457.228 420.221 458.004C422.904 462.075 423.221 464.007 423.221 469.004C446.651 469.004 470.081 469.004 494.221 469.004C485.095 455.313 485.095 455.313 475.96 441.629C465.554 426.049 455.167 410.46 444.94 394.762C438.959 385.584 432.891 376.466 426.797 367.363C425.336 365.175 423.879 362.985 422.424 360.793C417.668 353.63 412.879 346.49 408.049 339.375C407.588 338.695 407.127 338.016 406.651 337.315C404.334 333.901 402.016 330.489 399.694 327.079C395.264 320.563 390.898 314.025 386.718 307.345C384.623 304.069 382.374 300.911 380.128 297.738C378.005 294.695 375.947 291.612 373.897 288.52C369.706 282.217 365.486 275.934 361.252 269.66C360.641 268.754 360.03 267.848 359.4 266.915C357.507 264.111 355.614 261.308 353.721 258.504C339.282 237.121 339.282 237.121 332.678 227.191C330.01 223.181 327.322 219.185 324.624 215.196C313.55 198.787 302.861 182.793 296.221 164.004C295.807 162.876 295.394 161.748 294.967 160.586C291.798 150.99 291.615 141.979 292.221 132.004C292.281 130.932 292.34 129.859 292.401 128.754C293.669 117.373 299.707 106.476 307.221 98.0042C305.645 93.2654 303.008 89.6781 300.096 85.6917C293.965 77.188 288.183 68.4715 282.479 59.6768C281.824 58.6801 281.169 57.6834 280.495 56.6566C279.911 55.7593 279.328 54.862 278.727 53.9376C278.23 53.2996 277.733 52.6616 277.221 52.0042C276.561 52.0042 275.901 52.0042 275.221 52.0042C273.984 53.3698 273.984 53.3698 272.788 55.1956C272.309 55.8864 271.83 56.5772 271.336 57.2889C270.824 58.0406 270.311 58.7922 269.784 59.5667C268.706 61.1236 267.626 62.6795 266.545 64.2347C265.995 65.0279 265.446 65.8212 264.879 66.6385C261.892 70.9015 258.794 75.0824 255.7 79.2681C251.791 83.7682 251.791 83.7682 250.346 89.1292C251.333 92.3715 252.686 95.2977 254.186 98.3323C257.399 106.624 257.489 114.634 257.46 123.41C257.471 125.366 257.482 127.321 257.496 129.276C257.526 134.044 257.537 138.813 257.527 143.581C257.477 165.767 257.477 165.767 263.221 187.004C263.619 188 264.018 188.997 264.428 190.023C265.576 192.753 266.878 195.365 268.221 198.004C268.754 199.124 269.286 200.245 269.835 201.399C275.711 213.396 283.269 224.306 290.731 235.349C291.166 235.993 291.601 236.637 292.049 237.301C292.702 238.267 292.702 238.267 293.369 239.253C298.364 246.666 303.159 254.203 307.932 261.76C311.358 267.165 314.898 272.453 318.594 277.677C320.96 281.06 323.188 284.525 325.409 288.004C330.722 296.269 336.157 304.449 341.624 312.614C343.275 315.085 344.921 317.56 346.565 320.035C352.835 329.472 359.158 338.869 365.556 348.219C373.941 360.492 382.228 372.831 390.528 385.161C396.975 394.734 403.447 404.29 409.979 413.806C410.956 415.229 411.931 416.654 412.904 418.079C413.754 419.322 414.61 420.561 415.473 421.796C418.221 425.784 418.221 425.784 418.221 428.004C417.246 428.026 417.246 428.026 416.251 428.048C381.95 428.892 347.415 432.065 313.874 439.564C309.138 440.622 304.4 441.508 299.612 442.298C273.131 446.667 247.061 452.73 221.279 460.151C218.293 460.984 215.298 461.747 212.288 462.485C206.215 463.979 200.213 465.681 194.209 467.427C192.081 468.045 189.953 468.659 187.824 469.273C183.837 470.424 179.85 471.577 175.864 472.731C173.422 473.438 170.981 474.144 168.54 474.85C164.546 476.005 160.554 477.164 156.563 478.324C155.004 478.777 153.446 479.228 151.887 479.679C144.397 481.845 136.933 484.022 129.582 486.628C120.852 489.718 112.055 492.169 103.034 494.254C101.523 494.605 101.523 494.605 99.9812 494.963C96.7356 495.688 93.4826 496.354 90.2212 497.004C89.5874 497.137 88.9536 497.27 88.3005 497.408C75.8321 499.988 63.6176 500.502 50.9048 500.45C47.6972 500.442 44.4912 500.471 41.2837 500.502C39.2108 500.504 37.1379 500.503 35.065 500.5C34.1231 500.512 33.1813 500.523 32.2109 500.534C23.4045 500.443 15.0339 497.733 8.22123 492.004C1.6587 483.612 -0.794948 476.681 0.221234 466.004C2.42635 456.044 8.33738 446.861 13.2212 438.004C13.5949 437.326 13.9686 436.647 14.3536 435.948C16.3133 432.397 18.286 428.854 20.2642 425.313C22.6134 421.104 24.9453 416.886 27.272 412.664C27.6273 412.02 27.9826 411.375 28.3486 410.711C29.7839 408.107 31.2188 405.502 32.6529 402.897C39.6935 390.11 39.6935 390.11 43.2212 384.004C48.9071 384.437 54.3854 385.214 59.9712 386.379C72.8621 389.003 86.1375 389.812 99.2212 391.004C97.5224 394.548 95.5531 397.9 93.5533 401.282C92.8169 402.531 92.0806 403.78 91.3443 405.03C90.198 406.971 89.051 408.913 87.9026 410.853C82.8067 419.47 77.8945 428.15 73.2212 437.004C69.2212 435.671 65.2212 434.338 61.2212 433.004C59.3006 435.856 57.3855 438.711 55.4712 441.567C54.9324 442.367 54.3936 443.166 53.8384 443.991C50.7723 448.571 47.8889 453.18 45.2212 458.004C62.1213 456.564 78.7148 455.074 95.2212 451.004C96.8367 450.626 98.4526 450.25 100.069 449.875C109.101 447.774 118.073 445.547 126.996 443.02C160.222 433.646 193.928 426.093 227.742 419.184C234.864 417.722 241.955 416.165 249.034 414.504C259.381 412.089 269.809 410.161 280.255 408.239C288.456 406.728 296.628 405.118 304.784 403.379C322.739 399.605 339.798 396.23 358.221 397.004C357.173 395.359 357.173 395.359 356.104 393.68C355.185 392.226 354.265 390.771 353.346 389.317C352.886 388.595 352.426 387.874 351.952 387.131C349.671 383.512 347.619 380.076 346.221 376.004C345.63 376.354 345.038 376.703 344.428 377.063C343.638 377.518 342.848 377.973 342.034 378.442C341.256 378.894 340.479 379.347 339.678 379.813C337.164 381.032 334.956 381.508 332.221 382.004C331.905 381.422 331.588 380.839 331.262 380.239C325.073 368.846 318.853 357.475 312.461 346.195C311.071 343.739 309.687 341.28 308.303 338.821C296.876 318.528 285.253 298.355 273.352 278.337C268.725 270.553 264.134 262.748 259.562 254.932C249.914 238.438 240.264 221.959 229.876 205.916C229.397 205.169 228.918 204.422 228.424 203.653C227.998 202.994 227.572 202.336 227.132 201.658C226.221 200.004 226.221 200.004 226.221 198.004C225.231 198.004 224.241 198.004 223.221 198.004C222.945 198.744 222.669 199.483 222.385 200.245C221.311 202.791 220.136 204.871 218.598 207.158C218.074 207.943 217.549 208.729 217.008 209.538C216.44 210.378 215.872 211.217 215.288 212.082C214.399 213.41 214.399 213.41 213.492 214.764C211.594 217.597 209.689 220.426 207.784 223.254C205.304 226.946 202.826 230.639 200.35 234.332C199.439 235.69 199.439 235.69 198.51 237.075C190.835 248.538 183.356 260.125 176.034 271.817C172.824 276.922 169.591 282.002 166.221 287.004C160.114 296.077 154.375 305.391 148.559 314.652C146.927 317.249 145.293 319.845 143.659 322.442C143.158 323.24 142.658 324.039 142.142 324.862C141.672 325.609 141.202 326.356 140.717 327.125C140.307 327.779 139.896 328.434 139.473 329.107C139.06 329.733 138.647 330.359 138.221 331.004C137.793 331.694 137.364 332.384 136.922 333.094C135.221 335.004 135.221 335.004 133.152 335.485C132.359 335.476 131.567 335.467 130.75 335.458C129.849 335.458 128.948 335.458 128.02 335.457C127.052 335.437 126.083 335.416 125.085 335.395C124.09 335.389 123.095 335.384 122.071 335.378C118.891 335.355 115.713 335.305 112.534 335.254C110.379 335.234 108.225 335.216 106.071 335.2C100.787 335.155 95.5043 335.088 90.2212 335.004C91.0054 333.578 91.7914 332.152 92.5782 330.727C93.0157 329.933 93.4532 329.139 93.9039 328.321C95.7322 325.106 97.7604 322.056 99.8462 319.004C100.741 317.679 101.634 316.354 102.526 315.028C102.978 314.356 103.43 313.684 103.896 312.992C105.96 309.896 107.963 306.762 109.971 303.629C115.111 295.629 120.401 287.73 125.688 279.827C132.42 269.766 139.13 259.71 145.512 249.423C151.602 239.681 158.072 230.181 164.483 220.649C168.717 214.343 172.868 208.038 176.718 201.488C179.936 196.171 183.448 191.04 186.909 185.879C187.716 184.671 188.524 183.462 189.331 182.254C193.52 175.993 197.741 169.757 202.034 163.567C206.235 157.505 210.312 151.366 214.346 145.192C215.201 143.891 215.201 143.891 216.072 142.563C216.598 141.753 217.124 140.944 217.667 140.11C218.136 139.389 218.605 138.669 219.089 137.927C222.496 132.141 222.143 124.511 221.221 118.004C219.741 113.624 217.729 109.878 215.221 106.004C214.838 105.401 214.456 104.798 214.061 104.176C210.521 99.3547 205.151 96.2396 200.221 93.0042C201.862 87.6996 205.233 83.6842 208.534 79.3167C209.81 77.605 211.086 75.8927 212.362 74.18C213.008 73.3145 213.655 72.4491 214.321 71.5574C225.484 56.5588 236.124 41.2006 246.471 25.6292C247.084 24.7127 247.696 23.7962 248.327 22.8519C249.328 21.3465 250.328 19.8399 251.314 18.324C259.756 5.34973 271.057 -5.00491 287.721 2.56671Z" fill="#6874E8"/>
<path d="M227.221 262.004C227.881 262.004 228.541 262.004 229.221 262.004C229.925 263.237 229.925 263.237 230.642 264.495C232.392 267.561 234.142 270.627 235.892 273.692C236.648 275.016 237.404 276.34 238.159 277.664C239.248 279.573 240.338 281.482 241.428 283.391C241.763 283.978 242.097 284.564 242.442 285.169C243.91 287.738 245.396 290.284 246.964 292.794C248.221 295.004 248.221 295.004 248.124 296.985C246.934 299.646 245.436 301.913 243.784 304.317C243.061 305.379 242.337 306.441 241.592 307.535C241.205 308.1 240.819 308.665 240.42 309.246C238.37 312.253 236.361 315.286 234.346 318.317C233.49 319.602 232.633 320.887 231.776 322.172C231.35 322.811 230.924 323.449 230.486 324.107C227.479 328.618 227.479 328.618 224.471 333.129C223.868 334.034 223.868 334.034 223.253 334.957C215.831 346.09 215.831 346.09 214.04 348.776C212.826 350.597 211.612 352.419 210.398 354.241C207.781 358.169 205.162 362.096 202.526 366.012C197.345 373.719 192.328 381.515 187.418 389.397C186.944 390.154 186.471 390.912 185.983 391.692C185.57 392.356 185.157 393.019 184.732 393.703C184.233 394.463 183.735 395.222 183.221 396.004C182.912 396.599 182.603 397.194 182.284 397.807C180.611 400.69 179.414 402.659 176.116 403.613C173.492 403.815 170.956 403.792 168.327 403.688C167.379 403.678 166.432 403.668 165.456 403.658C162.439 403.619 159.425 403.531 156.409 403.442C154.36 403.407 152.311 403.375 150.262 403.346C145.247 403.269 140.235 403.148 135.221 403.004C136.455 399.729 137.828 396.815 139.706 393.864C140.217 393.057 140.729 392.25 141.257 391.419C141.823 390.54 142.388 389.66 142.971 388.754C143.572 387.815 144.172 386.877 144.791 385.909C153.276 372.718 162.035 359.706 170.763 346.675C173.84 342.081 176.906 337.481 179.971 332.879C180.877 331.52 181.784 330.16 182.69 328.801C183.109 328.173 183.528 327.544 183.959 326.897C184.376 326.272 184.792 325.648 185.221 325.004C185.658 324.349 186.095 323.693 186.545 323.018C188.588 319.953 190.631 316.889 192.674 313.825C193.067 313.235 193.46 312.645 193.865 312.037C194.863 310.541 195.863 309.045 196.862 307.549C200.463 302.158 204.047 296.756 207.612 291.341C209.727 288.131 211.847 284.924 213.969 281.718C215.067 280.056 216.163 278.391 217.256 276.726C218.85 274.299 220.453 271.878 222.057 269.457C222.547 268.708 223.036 267.958 223.541 267.185C224.715 265.422 225.962 263.707 227.221 262.004Z" fill="#6874E8"/>
</svg>
