<svg width="100%" height="100%" viewBox="0 0 212 212" fill="none" xmlns="http://www.w3.org/2000/svg"><circle cx="106" cy="106" r="103.5" fill="" stroke="#6874E8" stroke-width="0"></circle><path d="M111.412 17.3335C113.559 18.7139 114.849 21.0713 116.219 23.1631C116.778 24.0168 117.342 24.8674 117.906 25.7181C118.07 25.966 118.07 25.966 118.238 26.219C119.436 28.0247 120.695 29.7812 121.969 31.5337C122.287 31.9844 122.604 32.436 122.92 32.8886C123.797 34.1453 124.677 35.4005 125.559 36.6542C125.702 36.858 125.845 37.0618 125.992 37.2717C126.722 38.3093 127.464 39.3346 128.235 40.3428C128.38 40.5336 128.524 40.7245 128.673 40.9211C128.949 41.2834 129.229 41.6434 129.511 42.0009C130.406 43.1801 130.406 43.1801 130.445 43.9347C129.976 44.7648 129.36 45.4501 128.726 46.1562C124.837 50.5791 124.837 50.5791 123.571 56.1333C123.574 56.3449 123.578 56.5565 123.582 56.7746C123.702 61.3622 126.079 64.5076 128.633 68.1572C129.334 69.1667 130.008 70.1936 130.684 71.2199C131.175 71.9483 131.675 72.6674 132.181 73.3853C133.257 74.9187 134.292 76.478 135.325 78.0406C136.84 80.3244 138.38 82.5885 139.953 84.8328C141.719 87.3524 143.434 89.9022 145.134 92.4666C146.651 94.7548 148.2 97.0173 149.785 99.2591C151.29 101.396 152.739 103.569 154.18 105.749C155.016 107.012 155.858 108.268 156.731 109.505C157.857 111.104 158.927 112.738 159.995 114.377C160.098 114.535 160.201 114.693 160.308 114.856C162.227 117.797 164.12 120.753 165.997 123.721C166.443 124.427 166.891 125.132 167.339 125.838C168.686 127.96 170.02 130.09 171.327 132.237C175.153 138.556 175.153 138.556 179.263 144.689C180.747 146.792 181.867 148.528 181.656 151.188C180.989 153.882 179.735 155.83 177.398 157.347C176.14 158.093 174.999 158.577 173.523 158.586C173.254 158.588 172.984 158.591 172.707 158.594C172.414 158.594 172.122 158.595 171.821 158.595C171.355 158.598 171.355 158.598 170.88 158.602C169.852 158.609 168.825 158.611 167.798 158.613C167.082 158.615 166.366 158.618 165.65 158.621C164.149 158.625 162.647 158.627 161.145 158.628C159.417 158.629 157.689 158.638 155.961 158.649C154.291 158.66 152.622 158.664 150.953 158.664C150.246 158.665 149.539 158.669 148.832 158.674C147.84 158.682 146.848 158.681 145.855 158.677C145.567 158.681 145.278 158.686 144.981 158.69C141.755 158.658 138.927 157.359 136.61 155.13C135.151 153.542 133.888 151.807 132.65 150.045C132.539 149.887 132.428 149.729 132.314 149.567C131.542 148.442 131.542 148.442 131.542 147.81C133.409 147.374 135.273 147.037 137.168 146.751C137.598 146.685 137.598 146.685 138.037 146.619C138.639 146.528 139.241 146.437 139.843 146.347C140.764 146.208 141.684 146.066 142.604 145.924C143.191 145.836 143.778 145.748 144.365 145.66C144.639 145.617 144.914 145.574 145.196 145.53C145.581 145.474 145.581 145.474 145.974 145.416C146.198 145.382 146.422 145.348 146.654 145.313C147.405 145.271 147.995 145.339 148.716 145.558C149.471 146.704 149.56 147.248 149.56 148.655C156.157 148.655 162.753 148.655 169.55 148.655C166.98 144.8 166.98 144.8 164.408 140.947C161.479 136.561 158.555 132.172 155.675 127.752C153.991 125.168 152.283 122.601 150.567 120.038C150.156 119.423 149.746 118.806 149.336 118.189C147.997 116.172 146.649 114.162 145.289 112.159C145.159 111.967 145.029 111.776 144.895 111.579C144.243 110.618 143.59 109.657 142.936 108.697C141.689 106.862 140.46 105.022 139.283 103.141C138.693 102.219 138.06 101.33 137.428 100.436C136.83 99.5794 136.251 98.7114 135.674 97.8409C134.494 96.0663 133.306 94.2975 132.114 92.5312C131.942 92.2761 131.769 92.021 131.592 91.7582C131.059 90.9688 130.526 90.1795 129.993 89.3903C125.928 83.3701 125.928 83.3701 124.069 80.5743C123.318 79.4453 122.561 78.3204 121.801 77.1971C118.684 72.5774 115.674 68.0746 113.805 62.7847C113.688 62.4671 113.572 62.1496 113.452 61.8224C112.56 59.1208 112.508 56.5836 112.679 53.7754C112.695 53.4734 112.712 53.1715 112.729 52.8604C113.086 49.656 114.786 46.5882 116.902 44.203C116.458 42.8688 115.716 41.8589 114.896 40.7365C113.17 38.3424 111.542 35.8884 109.936 33.4123C109.751 33.1317 109.567 32.8511 109.377 32.562C109.213 32.3093 109.049 32.0567 108.879 31.7964C108.739 31.6168 108.6 31.4372 108.455 31.2521C108.27 31.2521 108.084 31.2521 107.892 31.2521C107.544 31.6366 107.544 31.6366 107.207 32.1506C107.072 32.3451 106.938 32.5396 106.799 32.74C106.654 32.9516 106.51 33.1632 106.362 33.3813C106.058 33.8196 105.754 34.2577 105.45 34.6955C105.295 34.9188 105.14 35.1422 104.981 35.3723C104.14 36.5725 103.267 37.7496 102.396 38.928C101.296 40.195 101.296 40.195 100.889 41.7043C101.167 42.6172 101.548 43.441 101.97 44.2954C102.875 46.63 102.9 48.8849 102.892 51.3559C102.895 51.9063 102.898 52.4568 102.902 53.0072C102.91 54.3498 102.913 55.6923 102.911 57.0348C102.897 63.2809 102.897 63.2809 104.514 69.2601C104.626 69.5406 104.738 69.821 104.854 70.11C105.177 70.8786 105.544 71.614 105.922 72.357C106.072 72.6724 106.221 72.9878 106.376 73.3127C108.03 76.6906 110.158 79.762 112.259 82.8711C112.381 83.0525 112.504 83.2339 112.63 83.4207C112.814 83.6928 112.814 83.6928 113.002 83.9703C114.408 86.0573 115.758 88.1793 117.102 90.3069C118.066 91.8287 119.063 93.3175 120.103 94.7882C120.77 95.7407 121.397 96.7161 122.022 97.6957C123.518 100.023 125.048 102.325 126.587 104.624C127.052 105.32 127.516 106.017 127.979 106.714C129.744 109.371 131.524 112.016 133.325 114.649C135.686 118.104 138.019 121.578 140.356 125.049C142.171 127.745 143.993 130.435 145.832 133.114C146.107 133.515 146.382 133.916 146.656 134.317C146.895 134.667 147.136 135.016 147.379 135.364C148.153 136.486 148.153 136.486 148.153 137.111C147.878 137.118 147.878 137.118 147.598 137.124C137.941 137.361 128.218 138.255 118.775 140.366C117.441 140.664 116.107 140.913 114.759 141.136C107.304 142.366 99.9642 144.073 92.7056 146.162C91.8649 146.397 91.0217 146.611 90.1741 146.819C88.4645 147.24 86.7746 147.719 85.0841 148.21C84.4851 148.384 83.8859 148.557 83.2866 148.73C82.164 149.054 81.0416 149.379 79.9192 149.704C79.2319 149.903 78.5446 150.102 77.8572 150.3C76.733 150.626 75.6091 150.952 74.4853 151.278C74.0465 151.406 73.6077 151.533 73.1688 151.66C71.0602 152.27 68.9585 152.883 66.889 153.616C64.4312 154.486 61.9547 155.176 59.4147 155.763C58.9893 155.862 58.9893 155.862 58.5553 155.963C57.6415 156.167 56.7256 156.355 55.8074 156.538C55.629 156.575 55.4505 156.613 55.2667 156.651C51.7563 157.378 48.3174 157.523 44.7383 157.508C43.8352 157.505 42.9326 157.514 42.0295 157.523C41.4459 157.523 40.8623 157.523 40.2787 157.522C40.0135 157.525 39.7484 157.528 39.4752 157.532C36.9958 157.506 34.6391 156.743 32.7211 155.13C30.8735 152.767 30.1827 150.816 30.4688 147.81C31.0896 145.006 32.7538 142.42 34.1288 139.927C34.234 139.736 34.3392 139.545 34.4476 139.348C34.9994 138.348 35.5547 137.35 36.1117 136.354C36.7731 135.169 37.4296 133.981 38.0847 132.793C38.1847 132.611 38.2847 132.43 38.3878 132.243C38.7919 131.509 39.1958 130.776 39.5996 130.043C41.5818 126.443 41.5818 126.443 42.575 124.724C44.1758 124.846 45.7182 125.064 47.2908 125.392C50.9201 126.131 54.6577 126.359 58.3413 126.694C57.863 127.692 57.3086 128.636 56.7455 129.588C56.5382 129.94 56.3309 130.291 56.1236 130.643C55.8009 131.19 55.478 131.736 55.1546 132.283C53.7199 134.709 52.337 137.152 51.0212 139.645C49.8951 139.27 48.7689 138.894 47.6428 138.519C47.102 139.322 46.5628 140.126 46.0239 140.93C45.8722 141.155 45.7205 141.38 45.5642 141.612C44.701 142.902 43.8892 144.199 43.1381 145.558C47.8961 145.152 52.5679 144.733 57.2151 143.587C57.6699 143.48 58.1249 143.374 58.5799 143.269C61.1229 142.677 63.649 142.05 66.1611 141.339C75.5155 138.7 85.005 136.573 94.525 134.628C96.5304 134.217 98.5266 133.778 100.52 133.311C103.433 132.631 106.369 132.088 109.31 131.547C111.619 131.121 113.919 130.668 116.215 130.178C121.271 129.116 126.073 128.166 131.26 128.384C130.965 127.92 130.965 127.92 130.664 127.448C130.405 127.038 130.147 126.629 129.888 126.219C129.758 126.016 129.629 125.813 129.495 125.604C128.853 124.585 128.275 123.618 127.882 122.471C127.715 122.57 127.549 122.668 127.377 122.769C127.155 122.897 126.932 123.026 126.703 123.158C126.484 123.285 126.265 123.412 126.04 123.544C125.332 123.887 124.71 124.021 123.94 124.16C123.851 123.996 123.762 123.832 123.67 123.663C121.928 120.456 120.177 117.255 118.377 114.079C117.986 113.387 117.596 112.695 117.206 112.003C113.989 106.289 110.717 100.61 107.366 94.974C106.063 92.7824 104.771 90.5852 103.484 88.3844C100.767 83.7407 98.0505 79.1014 95.126 74.5845C94.9911 74.3742 94.8562 74.164 94.7172 73.9473C94.5972 73.762 94.4771 73.5767 94.3535 73.3857C94.0969 72.9201 94.0969 72.9201 94.0969 72.357C93.8182 72.357 93.5395 72.357 93.2523 72.357C93.1746 72.5652 93.097 72.7734 93.0169 72.9878C92.7145 73.7047 92.3836 74.2905 91.9508 74.9341C91.803 75.1553 91.6552 75.3764 91.503 75.6043C91.3432 75.8407 91.1833 76.0771 91.0187 76.3206C90.7684 76.6943 90.7684 76.6943 90.5131 77.0755C89.9787 77.8732 89.4424 78.6696 88.906 79.4659C88.2078 80.5052 87.5104 81.5449 86.8132 82.5849C86.5568 82.9672 86.5568 82.9672 86.2952 83.3572C84.1343 86.5845 82.0285 89.8465 79.9671 93.1383C79.0634 94.5757 78.1532 96.0058 77.2045 97.4142C75.485 99.9685 73.8692 102.591 72.2318 105.198C71.7723 105.929 71.3123 106.66 70.8522 107.391C70.7113 107.616 70.5704 107.841 70.4253 108.073C70.2929 108.283 70.1605 108.493 70.0241 108.71C69.9085 108.894 69.7929 109.078 69.6738 109.268C69.5575 109.444 69.4412 109.62 69.3214 109.802C69.2007 109.996 69.08 110.19 68.9557 110.39C68.4767 110.928 68.4767 110.928 67.8942 111.064C67.671 111.061 67.4478 111.059 67.2179 111.056C66.9643 111.056 66.7107 111.056 66.4494 111.056C66.1767 111.05 65.9039 111.044 65.6229 111.038C65.3428 111.036 65.0628 111.035 64.7743 111.033C63.8792 111.027 62.9844 111.013 62.0893 110.998C61.4828 110.993 60.8763 110.988 60.2697 110.983C58.7822 110.971 57.2948 110.952 55.8074 110.928C56.0282 110.526 56.2495 110.125 56.471 109.724C56.5942 109.5 56.7174 109.277 56.8443 109.046C57.359 108.141 57.93 107.283 58.5173 106.423C58.769 106.05 59.0205 105.677 59.2717 105.304C59.399 105.115 59.5263 104.926 59.6574 104.731C60.2386 103.859 60.8026 102.977 61.3679 102.095C62.8149 99.8423 64.3042 97.6185 65.7929 95.3934C67.688 92.5609 69.5773 89.7298 71.3742 86.8335C73.0887 84.0907 74.9101 81.4161 76.7151 78.7324C77.9071 76.9571 79.0758 75.1818 80.1599 73.3378C81.0657 71.8409 82.0547 70.3963 83.0289 68.9434C83.2563 68.6032 83.4836 68.263 83.7109 67.9227C84.8901 66.16 86.0787 64.4043 87.2872 62.6615C88.4699 60.9548 89.6178 59.2265 90.7536 57.4882C90.9942 57.1219 90.9942 57.1219 91.2395 56.7481C91.3877 56.5202 91.5358 56.2922 91.6884 56.0574C91.8206 55.8546 91.9527 55.6518 92.0889 55.4428C93.0482 53.814 92.9486 51.6658 92.6892 49.8338C92.2725 48.6005 91.7062 47.5459 91 46.4553C90.8922 46.2855 90.7844 46.1156 90.6734 45.9406C89.6767 44.5832 88.1648 43.7062 86.7769 42.7953C87.2389 41.3018 88.1879 40.1713 89.1172 38.9417C89.4766 38.4598 89.8359 37.9777 90.195 37.4955C90.377 37.2519 90.559 37.0082 90.7465 36.7572C93.8895 32.5344 96.8851 28.2105 99.7981 23.8265C99.9705 23.5685 100.143 23.3104 100.321 23.0446C100.602 22.6207 100.884 22.1966 101.161 21.7698C103.538 18.117 106.72 15.2018 111.412 17.3335Z" fill="#fff"></path><path d="M94.3785 90.3756C94.5643 90.3756 94.7501 90.3756 94.9415 90.3756C95.1396 90.7228 95.1396 90.7228 95.3417 91.077C95.8342 91.9402 96.3269 92.8033 96.8197 93.6664C97.0325 94.039 97.2452 94.4118 97.4579 94.7845C97.7645 95.3221 98.0714 95.8595 98.3783 96.3969C98.4725 96.562 98.5667 96.7272 98.6637 96.8974C99.0771 97.6209 99.4953 98.3374 99.937 99.0441C100.291 99.6665 100.291 99.6665 100.263 100.224C99.9285 100.973 99.5067 101.612 99.0415 102.288C98.8379 102.587 98.6343 102.886 98.4245 103.195C98.3156 103.353 98.2067 103.512 98.0944 103.676C97.5172 104.523 96.9516 105.377 96.3844 106.23C96.1433 106.592 95.9021 106.954 95.6608 107.315C95.5409 107.495 95.4211 107.675 95.2976 107.86C94.4509 109.13 94.4509 109.13 93.6042 110.4C93.4344 110.655 93.4344 110.655 93.2612 110.915C91.1715 114.049 91.1715 114.049 90.6674 114.805C90.3256 115.318 89.9838 115.831 89.6422 116.344C88.9053 117.45 88.168 118.556 87.4257 119.658C85.9671 121.828 84.5547 124.023 83.1722 126.242C83.0389 126.455 82.9056 126.668 82.7682 126.888C82.652 127.075 82.5357 127.262 82.4159 127.454C82.2756 127.668 82.1353 127.882 81.9907 128.102C81.9036 128.27 81.8165 128.437 81.7268 128.61C81.2557 129.421 80.9188 129.976 79.9902 130.244C79.2515 130.301 78.5376 130.295 77.7973 130.265C77.5305 130.263 77.2638 130.26 76.989 130.257C76.1395 130.246 75.2911 130.221 74.4419 130.196C73.8651 130.186 73.2882 130.177 72.7114 130.169C71.2994 130.147 69.8883 130.113 68.4767 130.073C68.8242 129.151 69.2107 128.33 69.7393 127.499C69.8834 127.272 70.0275 127.045 70.176 126.811C70.3353 126.564 70.4946 126.316 70.6587 126.061C70.8278 125.797 70.9968 125.532 71.171 125.26C73.5599 121.546 76.0258 117.883 78.4832 114.214C79.3495 112.921 80.2128 111.625 81.0757 110.33C81.3308 109.947 81.5859 109.564 81.8411 109.182C81.9591 109.005 82.077 108.828 82.1985 108.646C82.3158 108.47 82.433 108.294 82.5538 108.113C82.6768 107.928 82.7998 107.744 82.9266 107.553C83.5018 106.691 84.0769 105.828 84.6521 104.965C84.7628 104.799 84.8734 104.633 84.9874 104.462C85.2684 104.041 85.5497 103.619 85.8312 103.198C86.8449 101.681 87.8539 100.16 88.8576 98.6352C89.453 97.7314 90.0501 96.8286 90.6474 95.9259C90.9565 95.4578 91.265 94.9893 91.5728 94.5204C92.0216 93.8371 92.4728 93.1554 92.9246 92.474C93.0624 92.2629 93.2002 92.0518 93.3422 91.8343C93.673 91.338 94.0238 90.8552 94.3785 90.3756Z" fill="#ff"></path></svg>